<?xml version="1.0" encoding="UTF-8" standalone="no"?>
<!-- Created with Inkscape (http://www.inkscape.org/) -->

<svg
   version="1.1"
   id="svg2"
   width="408"
   height="120"
   viewBox="0 0 408 120"
   sodipodi:docname="black_logo_transparent_background.eps"
   xmlns:inkscape="http://www.inkscape.org/namespaces/inkscape"
   xmlns:sodipodi="http://sodipodi.sourceforge.net/DTD/sodipodi-0.dtd"
   xmlns="http://www.w3.org/2000/svg"
   xmlns:svg="http://www.w3.org/2000/svg">
  <defs
     id="defs6" />
  <sodipodi:namedview
     id="namedview4"
     pagecolor="#ffffff"
     bordercolor="#000000"
     borderopacity="0.25"
     inkscape:showpageshadow="2"
     inkscape:pageopacity="0.0"
     inkscape:pagecheckerboard="0"
     inkscape:deskcolor="#d1d1d1" />
  <g
     id="g8"
     inkscape:groupmode="layer"
     inkscape:label="ink_ext_XXXXXX"
     transform="matrix(1.3333333,0,0,-1.3333333,0,120)">
    <g
       id="g10"
       transform="scale(0.1)">
      <path
         d="m 1563.55,146.25 c 3.6,0 7.04,-2.23 8.56,-5.469 l 53.67,-116.7224 57.58,118.6014 c 1.02,2.031 3.59,3.59 5.98,3.59 h 3.43 v 0.859 h -21.72 v -0.859 h 2.9 c 3.59,0 4.8,-2.23 3.24,-5.309 L 1628.67,39.6094 1583.2,140.781 c -1.52,3.239 -0.15,5.469 3.44,5.469 h 3.59 v 0.859 h -27.69 v -0.859 z"
         style="fill:#000000;fill-opacity:1;fill-rule:nonzero;stroke:none"
         id="path12" />
      <path
         d="M 1824.1,140.27 V 34.3008 c 0,-3.6016 -2.38,-5.9805 -5.98,-5.9805 h -2.73 v -0.8594 h 27.15 v 0.8594 h -2.74 c -3.55,0 -5.97,2.3789 -5.97,5.9805 V 140.27 c 0,3.558 2.42,5.98 5.97,5.98 h 2.74 v 0.859 h -27.15 v -0.859 h 2.73 c 3.6,0 5.98,-2.422 5.98,-5.98 z"
         style="fill:#000000;fill-opacity:1;fill-rule:nonzero;stroke:none"
         id="path14" />
      <path
         d="m 1977.93,146.25 h 1.02 c 3.59,0 7.69,-2.422 7.69,-9.41 V 34.3008 c 0,-3.6016 -2.38,-5.9805 -5.98,-5.9805 h -2.73 V 27.4609 H 2000 v 0.8594 h -2.73 c -3.6,0 -6.02,2.3789 -6.02,5.9805 V 135.121 L 2092.42,24.7305 h 1.37 V 140.27 c 0,3.558 2.38,5.98 5.98,5.98 h 2.73 v 0.859 h -22.03 v -0.859 h 2.73 c 3.6,0 5.98,-2.422 5.98,-5.98 V 41.9883 l -96.02,105.1207 h -15.23 z"
         style="fill:#000000;fill-opacity:1;fill-rule:nonzero;stroke:none"
         id="path16" />
      <path
         d="m 2250.27,27.4609 h 23.75 c 19.46,0 45.12,7.0274 45.12,33.0079 0,14.6914 -9.06,26.6406 -28.2,30.2304 11.29,2.2305 26.13,11.4488 26.13,28.7108 0,15.551 -14.34,27.699 -39.14,27.699 h -27.66 v -0.859 h 2.74 c 3.59,0 5.97,-2.422 5.97,-5.98 V 34.3008 c 0,-3.6016 -2.38,-5.9805 -5.97,-5.9805 h -2.74 z m 18.44,2.2305 v 59.7969 c 27.7,-0.1485 38.79,-14.3281 38.79,-29.7188 0,-25.789 -17.07,-30.0781 -35.35,-30.0781 z m 6.17,115.8596 c 13.32,-0.512 30.59,-7.192 30.59,-29.071 0,-18.7808 -14.02,-25.4292 -26.84,-25.4292 h -9.92 v 54.5002 z"
         style="fill:#000000;fill-opacity:1;fill-rule:nonzero;stroke:none"
         id="path18" />
      <path
         d="m 2458.09,28.3203 v -0.8594 h 23.43 v 0.8594 h -6.32 c -3.6,0 -4.81,2.2305 -3.25,5.3086 l 26.14,50.082 h 51.95 l 23.59,-49.9218 c 1.53,-3.2383 0.16,-5.4688 -3.43,-5.4688 h -1.02 v -0.8594 h 25.12 v 0.8594 h -1.88 c -3.59,0 -6.99,2.2305 -8.55,5.4688 L 2528.52,150.512 2465.78,31.9102 c -1.01,-2.0313 -3.59,-3.5899 -5.98,-3.5899 z m 67.18,107.6597 23.56,-49.73 h -49.53 z"
         style="fill:#000000;fill-opacity:1;fill-rule:nonzero;stroke:none"
         id="path20" />
      <path
         d="m 2743.16,28.3203 v -0.8594 h 27.19 v 0.8594 h -2.73 c -3.6,0 -5.98,2.3789 -5.98,5.9805 v 49.4101 h 13.83 c 8.71,-30.2695 30.58,-59.6523 56.21,-59.6523 v 0.8633 c -26.64,2.0273 -41.17,37.7383 -46.29,59.8086 13.67,3.0781 28.87,12.8086 28.87,31.0895 0,20.86 -20.35,31.289 -38.28,31.289 h -32.82 v -0.859 h 2.74 c 3.59,0 5.98,-2.422 5.98,-5.98 V 34.3008 c 0,-3.6016 -2.39,-5.9805 -5.98,-5.9805 z m 26.33,117.2307 c 11.6,-0.512 33.48,-7.192 33.48,-31.602 0,-18.1287 -12.11,-28.3592 -29.73,-28.3592 h -11.6 v 59.9612 z"
         style="fill:#000000;fill-opacity:1;fill-rule:nonzero;stroke:none"
         id="path22" />
      <path
         d="m 1936.52,668.32 c 0,105.821 -89.76,191.758 -201.17,193.36 -1.09,0.039 -2.15,0.039 -3.2,0.039 H 1562.54 V 271.09 h 22.26 v 203.832 h 147.35 c 5.08,0 10.15,0.156 15.15,0.508 L 1870,271.09 h 25.39 L 1770.9,478.398 c 94.33,17.114 165.62,95.622 165.62,189.922 z M 1728.91,485 H 1584.8 v 366.602 h 144.11 c 1.01,0 1.99,0 3,0 98.01,-1.481 181.25,-84.762 179.57,-186.012 C 1909.84,565.391 1825.55,485.199 1728.91,485 Z"
         style="fill:#000000;fill-opacity:1;fill-rule:nonzero;stroke:none"
         id="path24" />
      <path
         d="m 2306.48,878.48 c -172.34,0 -312.07,-139.73 -312.07,-312.07 0,-172.351 139.73,-312.07 312.07,-312.07 172.35,0 312.07,139.719 312.07,312.07 0,172.34 -139.72,312.07 -312.07,312.07 z m -4.92,-613.992 c -160.04,2.461 -284.96,139.653 -282.22,306.41 2.69,166.762 132.03,299.922 292.07,297.461 160.04,-2.5 284.96,-139.687 282.22,-306.449 -2.69,-166.711 -132.03,-299.922 -292.07,-297.422 z"
         style="fill:#000000;fill-opacity:1;fill-rule:nonzero;stroke:none"
         id="path26" />
      <path
         d="m 3050.04,861.719 h -458.99 v -10.117 h 218.36 V 271.09 h 22.27 v 580.512 h 218.36 z"
         style="fill:#000000;fill-opacity:1;fill-rule:nonzero;stroke:none"
         id="path28" />
      <path
         d="m 525.039,896.172 c -83.051,-17.07 -166.019,-33.32 -248.09,-50.512 -7.027,-1.012 -10.039,-9.058 -9.058,-15.109 26.679,-99.93 53.32,-199.891 80.82,-298.949 -66.762,4.609 -132.77,9.179 -199.652,12.929 -9.059,0.981 -14.098,-8.082 -12.071,-16.133 5.942,-31.449 12.582,-63.558 18.75,-95.238 -48.039,4.57 -95.4294,9.11 -143.6677,13.68 -16.08983,1.988 -16.08983,-23.168 0,-25.199 47.0313,-4.45 93.2387,-8.871 140.0777,-13.321 -13.128,-31.441 -26.367,-62.808 -40.347,-93.441 -6.063,-15.109 15.109,-27.18 22.148,-13.078 15.11,36.25 30.231,72.5 46.321,107.769 0.242,0.551 0.429,1.129 0.589,1.719 2.153,3.281 2.969,7.731 2.461,11.371 -5.98,31.559 -12.699,63.82 -18.871,95.621 67.27,-4.691 133.75,-9.301 201.141,-13.051 8.082,-1.011 14.101,8.051 12.109,16.141 -27.078,101.52 -54.179,203.039 -82.148,303.707 77.89,16.012 155.738,31.332 232.808,47.344 l 3.52,-4.063 c -5.117,1.52 -11.098,0.082 -14.18,-5.589 C 469.34,777.191 420,691.559 371.641,605.941 c -1.993,-4.031 -3.012,-9.062 0,-13.089 l 113.32,-155.821 c -43.672,-25.551 -88.082,-51.761 -131.68,-77.23 -3.98,0.32 -7.812,-1.602 -9.84,-6.641 -15.121,-36.281 -30.203,-72.539 -46.332,-107.769 -6.058,-15.121 15.121,-27.192 22.153,-13.09 13.199,31.679 26.398,63.359 40.308,94.379 15.078,-14.02 30,-27.7 44.301,-42.032 7.5,-7.457 15.66,-14.257 23.399,-21.527 -0.079,-0.191 -0.161,-0.391 -0.239,-0.621 l -6.051,-18.121 c -10.039,-35.238 -20.121,-72.5 -38.25,-104.731 -2.73,-4.57 -15.23,-9.378 -29.371,-13.867 -1.597,-0.23 -3.16,-0.742 -4.609,-1.441 -15.781,-4.891 -32.539,-9.418 -39.531,-12.891 -4.059,-2.039 -6.059,-7.07 -6.059,-11.097 V 14.7305 c 0,-16.10159 25.16,-16.10159 25.16,0 v 77.5703 l 19.731,7.8982 c 19.609,-30.7107 39.289,-60.6677 59.84,-91.48806 9.058,-13.08985 30.23,-1.01172 22.187,13.08986 -18.598,29.1797 -37.148,57.5781 -56.406,86.5972 7.539,1.68 15.199,3.512 21.129,7.071 19.148,11.051 27.187,49.332 33.25,67.461 9.058,26.211 17.109,53.398 25.187,80.59 0.981,4.019 0,9.058 -3.039,12.07 -24.219,23.39 -49.219,46.012 -73.679,69.18 43.558,25.46 87.742,51.558 131.101,76.871 5.039,3.007 9.059,12.07 4.02,17.109 -25.192,34.262 -50.352,68.52 -74.532,102.73 -13.089,18.129 -27.187,37.27 -40.269,55.399 -0.551,0.742 -1.059,1.359 -1.488,1.949 l 5.507,9.141 c 37.731,66.25 75.469,133.203 113.789,199.691 V 651.289 c 0,-50.391 53.403,-98.711 80.582,-139.019 l 57.43,-81.571 c 0.43,-0.621 0.86,-1.129 1.289,-1.519 -0.711,-1.168 -1.488,-2.66 -2.308,-4.532 -9.063,-18.128 -17.11,-36.25 -26.172,-54.378 -25.199,-50.348 -54.418,-100.7 -83.59,-152.071 -2.039,-4.019 -2.039,-9.058 0,-13.121 C 576.602,152.07 612.191,98.1992 647.07,45 603.949,39.1797 560.82,33.8711 517.699,27.8516 c -16.14,-2.0313 -16.14,-27.230506 0,-25.19144 50.352,7.07031 100.699,13.07814 151.051,20.14844 9.059,0.9805 17.148,10.082 11.09,19.1406 l -63.469,96.6798 -42.269,63.441 c -2.153,3.52 -4.262,6.559 -6.372,9.809 0.821,1.281 1.918,3 3.321,5.312 12,20.899 23.64,41.911 34.969,63.039 17.218,-28.628 34.449,-57.808 51.679,-86.21 8.039,-14.098 30.192,-1.008 22.141,13.089 -19.918,32.891 -39.879,66.762 -59.801,99.653 20.621,39.449 40.391,79.367 59.801,119.918 2,4.019 3.012,9.058 0,13.09 -46.32,65.46 -92.649,131.949 -137.961,197.421 -0.399,0.508 -0.75,0.93 -1.02,1.289 v 218.239 c 0,0.39 -0.039,0.781 -0.078,1.172 l 70.59,-82.731 c 15.078,-18.129 31.207,-36.25 46.328,-54.379 2.422,-3.011 3.821,-5.16 4.602,-6.601 -0.852,-8.09 -1.871,-16.758 -3.629,-24.649 -0.703,-6.441 -2.422,-14.371 -4.332,-22.972 -6.059,-27.61 -13.602,-62.149 6.359,-76.719 36.25,-27.18 72.5,-55.391 108.789,-82.57 3.012,-2.04 9.063,-2.04 13.09,0 11.051,7.031 22.152,15.07 33.242,22.14 7.032,5.039 15.078,10.078 22.149,15.121 1.48,0.938 2.691,1.68 3.711,2.309 18.281,-14.379 36.558,-28.25 55.351,-42.5 -13.281,-12.781 -26.211,-25.668 -39.652,-39.11 -0.469,-0.39 -0.899,-0.82 -1.289,-1.281 l -2.031,-2.039 c -1.399,-1.289 -2.418,-2.73 -3.079,-4.18 -8.359,-10.308 -16.718,-21.171 -25.121,-32.07 -7.461,-9.719 0.59,-21.64 9.371,-22.219 33.598,-31.839 66.45,-63.711 100.04,-95.55 -16.79,-34.141 -34.329,-67.539 -50.969,-101.801 -7.071,-14.102 14.097,-27.18 22.148,-13.078 18.121,37.258 37.262,73.508 55.391,110.777 2.031,5.039 2.031,11.09 -2,15.121 -35.578,33.668 -70.27,67.34 -105.781,101.012 3.793,4.726 7.582,9.566 11.332,14.457 6.988,-8.719 13.949,-17.777 20.898,-26.84 10.082,-13.09 28.199,5.039 18.16,18.121 -7.379,8.871 -14.758,18.25 -22.148,27.781 14.5,13.938 28.558,28.008 43.289,42.731 6.051,6.058 4.019,15.117 -3.012,20.156 -25.199,19.102 -49.379,38.242 -74.527,57.383 -3.051,2.027 -9.071,2.027 -13.09,0 l -58.789,-41.133 c -0.942,0.82 -2.152,1.762 -3.672,2.852 l -39.301,30.23 c -18.859,14.379 -38.508,29.539 -57.539,44.11 0.078,0 0.121,0 0.199,0.031 0.469,0.238 0.469,1.488 0.43,3.828 -0.039,2.66 -0.117,6.762 0.512,12.461 2.027,18.129 4.058,36.25 7.07,54.379 0.27,3.203 1.09,7.261 2.027,11.722 2.5,12.258 5.622,27.5 -1.019,35.618 -12.109,14.101 -25.188,29.222 -37.258,43.32 -31.25,36.601 -62.5,73.211 -93.75,110.512 3.508,7.578 -3.402,19.57 -15.043,17.379 l -0.668,-0.11 c -4.64,2.34 -9.68,0.738 -13.121,-2.738 z M 662.66,717.23 c 0,0.149 0.039,0.348 0.07,0.5 z m 0.11,-3.91 c 0.16,-0.82 0.351,-1.289 0.429,-1.289 0.082,0 0,0.43 -0.429,1.289 z M 565.039,216.172 c 0.121,-0.152 0.231,-0.352 0.313,-0.551 -0.122,0.199 -0.231,0.359 -0.313,0.551 z"
         style="fill:#000000;fill-opacity:1;fill-rule:evenodd;stroke:none"
         id="path30" />
      <path
         d="m 1202.93,2.53906 h 11.9492 v 897.461 H 1202.93 Z"
         style="fill:#000000;fill-opacity:1;fill-rule:nonzero;stroke:none"
         id="path32" />
    </g>
  </g>
</svg>
